<svg xmlns="http://www.w3.org/2000/svg" viewBox="0 0 1200 800">
  <!-- Background -->
  <rect width="1200" height="800" fill="#f5f5f5"/>
  
  <!-- Header -->
  <rect x="10" y="10" width="1180" height="60" rx="5" fill="#2a3b56"/>
  <text x="40" y="50" font-family="Arial" font-size="24" fill="white">Hedge Fund Performance Dashboard</text>
  <text x="1050" y="50" font-family="Arial" font-size="18" fill="white">Q1 2023</text>
  
  <!-- Strategy Selector -->
  <rect x="890" y="80" width="300" height="40" rx="5" fill="#ffffff" stroke="#dddddd"/>
  <text x="910" y="105" font-family="Arial" font-size="14" fill="#555555">Strategy Filter: All Strategies ▼</text>
  <rect x="580" y="80" width="300" height="40" rx="5" fill="#ffffff" stroke="#dddddd"/>
  <text x="600" y="105" font-family="Arial" font-size="14" fill="#555555">Time Period: YTD ▼</text>
  
  <!-- Key Metrics -->
  <rect x="10" y="80" width="180" height="90" rx="5" fill="#ffffff" stroke="#dddddd"/>
  <text x="25" y="105" font-family="Arial" font-size="14" font-weight="bold" fill="#555555">Total YTD P&L</text>
  <text x="25" y="140" font-family="Arial" font-size="28" fill="#0a8f29">$166.19M</text>
  
  <rect x="200" y="80" width="180" height="90" rx="5" fill="#ffffff" stroke="#dddddd"/>
  <text x="215" y="105" font-family="Arial" font-size="14" font-weight="bold" fill="#555555">Portfolio Sharpe</text>
  <text x="215" y="140" font-family="Arial" font-size="28" fill="#0066cc">1.07</text>
  
  <rect x="390" y="80" width="180" height="90" rx="5" fill="#ffffff" stroke="#dddddd"/>
  <text x="405" y="105" font-family="Arial" font-size="14" font-weight="bold" fill="#555555">Win/Loss Ratio</text>
  <text x="405" y="140" font-family="Arial" font-size="28" fill="#8a2be2">1.35</text>
  
  <!-- Heatmap Matrix -->
  <rect x="10" y="180" width="780" height="300" rx="5" fill="#ffffff" stroke="#dddddd"/>
  <text x="25" y="210" font-family="Arial" font-size="18" font-weight="bold" fill="#333333">Strategy Performance Heatmap</text>
  
  <!-- Table Headers -->
  <text x="25" y="240" font-family="Arial" font-size="14" font-weight="bold" fill="#555555">Strategy</text>
  <text x="240" y="240" font-family="Arial" font-size="14" font-weight="bold" fill="#555555">YTD P&L</text>
  <text x="340" y="240" font-family="Arial" font-size="14" font-weight="bold" fill="#555555">YTD Sharpe</text>
  <text x="440" y="240" font-family="Arial" font-size="14" font-weight="bold" fill="#555555">MTD P&L</text>
  <text x="540" y="240" font-family="Arial" font-size="14" font-weight="bold" fill="#555555">Win/Loss</text>
  <text x="640" y="240" font-family="Arial" font-size="14" font-weight="bold" fill="#555555">Utilization %</text>
  
  <!-- Table Rows with Heatmap Colors -->
  <rect x="220" y="250" width="90" height="30" fill="#0a8f29" opacity="0.8"/>
  <rect x="320" y="250" width="90" height="30" fill="#0066cc" opacity="0.7"/>
  <rect x="420" y="250" width="90" height="30" fill="#0a8f29" opacity="0.6"/>
  <rect x="520" y="250" width="90" height="30" fill="#8a2be2" opacity="0.8"/>
  <rect x="620" y="250" width="90" height="30" fill="#ff9900" opacity="0.6"/>
  <text x="25" y="270" font-family="Arial" font-size="14" fill="#333333">FUNDAMENTAL-EQUITIES</text>
  <text x="240" y="270" font-family="Arial" font-size="14" fill="white">41.96</text>
  <text x="340" y="270" font-family="Arial" font-size="14" fill="white">1.70</text>
  <text x="440" y="270" font-family="Arial" font-size="14" fill="white">-0.54</text>
  <text x="540" y="270" font-family="Arial" font-size="14" fill="white">2.1</text>
  <text x="640" y="270" font-family="Arial" font-size="14" fill="white">58.4%</text>
  
  <rect x="220" y="290" width="90" height="30" fill="#0a8f29" opacity="0.7"/>
  <rect x="320" y="290" width="90" height="30" fill="#0066cc" opacity="0.6"/>
  <rect x="420" y="290" width="90" height="30" fill="#0a8f29" opacity="0.5"/>
  <rect x="520" y="290" width="90" height="30" fill="#8a2be2" opacity="0.6"/>
  <rect x="620" y="290" width="90" height="30" fill="#ff9900" opacity="0.8"/>
  <text x="25" y="310" font-family="Arial" font-size="14" fill="#333333">MACRO</text>
  <text x="240" y="310" font-family="Arial" font-size="14" fill="white">36.54</text>
  <text x="340" y="310" font-family="Arial" font-size="14" fill="white">1.67</text>
  <text x="440" y="310" font-family="Arial" font-size="14" fill="white">1.30</text>
  <text x="540" y="310" font-family="Arial" font-size="14" fill="white">1.7</text>
  <text x="640" y="310" font-family="Arial" font-size="14" fill="white">74.2%</text>
  
  <rect x="220" y="330" width="90" height="30" fill="#0a8f29" opacity="0.9"/>
  <rect x="320" y="330" width="90" height="30" fill="#0066cc" opacity="0.9"/>
  <rect x="420" y="330" width="90" height="30" fill="#c62828" opacity="0.6"/>
  <rect x="520" y="330" width="90" height="30" fill="#8a2be2" opacity="0.7"/>
  <rect x="620" y="330" width="90" height="30" fill="#ff9900" opacity="0.7"/>
  <text x="25" y="350" font-family="Arial" font-size="14" fill="#333333">CREDIT</text>
  <text x="240" y="350" font-family="Arial" font-size="14" fill="white">26.40</text>
  <text x="340" y="350" font-family="Arial" font-size="14" fill="white">3.40</text>
  <text x="440" y="350" font-family="Arial" font-size="14" fill="white">-1.03</text>
  <text x="540" y="350" font-family="Arial" font-size="14" fill="white">1.8</text>
  <text x="640" y="350" font-family="Arial" font-size="14" fill="white">65.6%</text>
  
  <rect x="220" y="370" width="90" height="30" fill="#0a8f29" opacity="0.8"/>
  <rect x="320" y="370" width="90" height="30" fill="#0066cc" opacity="0.5"/>
  <rect x="420" y="370" width="90" height="30" fill="#0a8f29" opacity="0.4"/>
  <rect x="520" y="370" width="90" height="30" fill="#8a2be2" opacity="0.5"/>
  <rect x="620" y="370" width="90" height="30" fill="#ff9900" opacity="0.5"/>
  <text x="25" y="390" font-family="Arial" font-size="14" fill="#333333">EQUITY-ARBITRAGE</text>
  <text x="240" y="390" font-family="Arial" font-size="14" fill="white">34.84</text>
  <text x="340" y="390" font-family="Arial" font-size="14" fill="white">1.26</text>
  <text x="440" y="390" font-family="Arial" font-size="14" fill="white">2.87</text>
  <text x="540" y="390" font-family="Arial" font-size="14" fill="white">1.3</text>
  <text x="640" y="390" font-family="Arial" font-size="14" fill="white">52.1%</text>
  
  <rect x="220" y="410" width="90" height="30" fill="#0a8f29" opacity="0.6"/>
  <rect x="320" y="410" width="90" height="30" fill="#0066cc" opacity="0.4"/>
  <rect x="420" y="410" width="90" height="30" fill="#c62828" opacity="0.7"/>
  <rect x="520" y="410" width="90" height="30" fill="#8a2be2" opacity="0.3"/>
  <rect x="620" y="410" width="90" height="30" fill="#ff9900" opacity="0.9"/>
  <text x="25" y="430" font-family="Arial" font-size="14" fill="#333333">APAC</text>
  <text x="240" y="430" font-family="Arial" font-size="14" fill="white">9.87</text>
  <text x="340" y="430" font-family="Arial" font-size="14" fill="white">1.19</text>
  <text x="440" y="430" font-family="Arial" font-size="14" fill="white">-4.20</text>
  <text x="540" y="430" font-family="Arial" font-size="14" fill="white">0.5</text>
  <text x="640" y="430" font-family="Arial" font-size="14" fill="white">89.3%</text>
  
  <rect x="220" y="450" width="90" height="30" fill="#c62828" opacity="0.7"/>
  <rect x="320" y="450" width="90" height="30" fill="#0066cc" opacity="0.2"/>
  <rect x="420" y="450" width="90" height="30" fill="#c62828" opacity="0.9"/>
  <rect x="520" y="450" width="90" height="30" fill="#8a2be2" opacity="0.2"/>
  <rect x="620" y="450" width="90" height="30" fill="#ff9900" opacity="0.4"/>
  <text x="25" y="470" font-family="Arial" font-size="14" fill="#333333">COMMODITIES</text>
  <text x="240" y="470" font-family="Arial" font-size="14" fill="white">-20.15</text>
  <text x="340" y="470" font-family="Arial" font-size="14" fill="white">-4.89</text>
  <text x="440" y="470" font-family="Arial" font-size="14" fill="white">-16.15</text>
  <text x="540" y="470" font-family="Arial" font-size="14" fill="white">0.3</text>
  <text x="640" y="470" font-family="Arial" font-size="14" fill="white">42.7%</text>
  
  <!-- Performance Chart -->
  <rect x="10" y="490" width="520" height="300" rx="5" fill="#ffffff" stroke="#dddddd"/>
  <text x="25" y="520" font-family="Arial" font-size="18" font-weight="bold" fill="#333333">Year-to-Date P&L Trends</text>
  
  <!-- Line Chart -->
  <line x1="40" y1="770" x2="490" y2="770" stroke="#dddddd" stroke-width="1"/>
  <line x1="40" y1="570" x2="40" y2="770" stroke="#dddddd" stroke-width="1"/>
  
  <!-- Y-axis labels -->
  <text x="25" y="575" font-family="Arial" font-size="12" fill="#555555">50M</text>
  <text x="25" y="625" font-family="Arial" font-size="12" fill="#555555">25M</text>
  <text x="25" y="675" font-family="Arial" font-size="12" fill="#555555">0</text>
  <text x="25" y="725" font-family="Arial" font-size="12" fill="#555555">-25M</text>
  <text x="25" y="775" font-family="Arial" font-size="12" fill="#555555">-50M</text>
  
  <!-- X-axis labels -->
  <text x="40" y="785" font-family="Arial" font-size="12" fill="#555555">Jan</text>
  <text x="115" y="785" font-family="Arial" font-size="12" fill="#555555">Feb</text>
  <text x="190" y="785" font-family="Arial" font-size="12" fill="#555555">Mar</text>
  <text x="265" y="785" font-family="Arial" font-size="12" fill="#555555">Apr</text>
  <text x="340" y="785" font-family="Arial" font-size="12" fill="#555555">May</text>
  <text x="415" y="785" font-family="Arial" font-size="12" fill="#555555">Jun</text>
  <text x="490" y="785" font-family="Arial" font-size="12" fill="#555555">Jul</text>
  
  <!-- Chart Lines -->
  <polyline points="40,650 115,630 190,610 265,600 340,580 415,570 490,575" fill="none" stroke="#0a8f29" stroke-width="3"/>
  <polyline points="40,660 115,640 190,620 265,610 340,600 415,590 490,585" fill="none" stroke="#0066cc" stroke-width="3"/>
  <polyline points="40,700 115,710 190,720 265,710 340,680 415,670 490,660" fill="none" stroke="#8a2be2" stroke-width="3"/>
  <polyline points="40,680 115,700 190,720 265,730 340,750 415,760 490,750" fill="none" stroke="#c62828" stroke-width="3"/>
  
  <!-- Chart Legend -->
  <rect x="60" y="540" width="12" height="12" fill="#0a8f29"/>
  <text x="80" y="550" font-family="Arial" font-size="12" fill="#555555">FUNDAMENTAL-EQUITIES</text>
  <rect x="240" y="540" width="12" height="12" fill="#0066cc"/>
  <text x="260" y="550" font-family="Arial" font-size="12" fill="#555555">CREDIT</text>
  <rect x="320" y="540" width="12" height="12" fill="#8a2be2"/>
  <text x="340" y="550" font-family="Arial" font-size="12" fill="#555555">MACRO</text>
  <rect x="400" y="540" width="12" height="12" fill="#c62828"/>
  <text x="420" y="550" font-family="Arial" font-size="12" fill="#555555">COMMODITIES</text>
  
  <!-- Risk Metrics -->
  <rect x="540" y="490" width="650" height="300" rx="5" fill="#ffffff" stroke="#dddddd"/>
  <text x="555" y="520" font-family="Arial" font-size="18" font-weight="bold" fill="#333333">Risk-Adjusted Performance</text>
  
  <!-- Scatter Plot -->
  <line x1="570" y1="750" x2="1150" y2="750" stroke="#dddddd" stroke-width="1"/>
  <line x1="570" y1="550" x2="570" y2="750" stroke="#dddddd" stroke-width="1"/>
  
  <!-- Axes Labels -->
  <text x="860" y="780" font-family="Arial" font-size="14" fill="#555555">Volatility →</text>
  <text x="530" y="650" font-family="Arial" font-size="14" fill="#555555" transform="rotate(-90 530,650)">Return →</text>
  
  <!-- Scatter Points -->
  <circle cx="700" cy="600" r="28" fill="#0a8f29" opacity="0.7"/>
  <text x="690" y="605" font-family="Arial" font-size="12" fill="white">FE</text>
  
  <circle cx="760" cy="590" r="25" fill="#8a2be2" opacity="0.7"/>
  <text x="755" y="595" font-family="Arial" font-size="12" fill="white">M</text>
  
  <circle cx="650" cy="580" r="23" fill="#0066cc" opacity="0.7"/>
  <text x="645" y="585" font-family="Arial" font-size="12" fill="white">C</text>
  
  <circle cx="780" cy="640" r="22" fill="#ff9900" opacity="0.7"/>
  <text x="775" y="645" font-family="Arial" font-size="12" fill="white">EA</text>
  
  <circle cx="850" cy="670" r="16" fill="#9c27b0" opacity="0.7"/>
  <text x="845" y="675" font-family="Arial" font-size="12" fill="white">A</text>
  
  <circle cx="900" cy="720" r="20" fill="#c62828" opacity="0.7"/>
  <text x="895" y="725" font-family="Arial" font-size="12" fill="white">CO</text>
  
  <circle cx="680" cy="680" r="14" fill="#009688" opacity="0.7"/>
  <text x="675" y="685" font-family="Arial" font-size="12" fill="white">ST</text>
  
  <!-- Reference Lines -->
  <line x1="570" y1="650" x2="1150" y2="650" stroke="#dddddd" stroke-width="1" stroke-dasharray="5,5"/>
  <line x1="860" y1="550" x2="860" y2="750" stroke="#dddddd" stroke-width="1" stroke-dasharray="5,5"/>
  
  <!-- Quadrant Labels -->
  <text x="710" y="570" font-family="Arial" font-size="14" fill="#0a8f29">High Return / Low Volatility</text>
  <text x="1000" y="570" font-family="Arial" font-size="14" fill="#ff9900">High Return / High Volatility</text>
  <text x="710" y="730" font-family="Arial" font-size="14" fill="#c62828">Low Return / Low Volatility</text>
  <text x="1000" y="730" font-family="Arial" font-size="14" fill="#c62828">Low Return / High Volatility</text>
  
  <!-- Manager Performance Section -->
  <rect x="800" y="180" width="390" height="300" rx="5" fill="#ffffff" stroke="#dddddd"/>
  <text x="815" y="210" font-family="Arial" font-size="18" font-weight="bold" fill="#333333">Top/Bottom Performers</text>
  
  <!-- Tabs -->
  <rect x="815" y="220" width="120" height="30" rx="5" fill="#2a3b56"/>
  <text x="845" y="240" font-family="Arial" font-size="14" fill="white">Strategies</text>
  <rect x="945" y="220" width="120" height="30" rx="5" fill="#dddddd"/>
  <text x="980" y="240" font-family="Arial" font-size="14" fill="#555555">Managers</text>
  <rect x="1075" y="220" width="120" height="30" rx="5" fill="#dddddd"/>
  <text x="1105" y="240" font-family="Arial" font-size="14" fill="#555555">Trades</text>
  
  <!-- Top Performers -->
  <text x="820" y="280" font-family="Arial" font-size="16" font-weight="bold" fill="#333333">Top Performers (YTD)</text>
  
  <rect x="820" y="295" width="350" height="35" rx="0" fill="#f9f9f9"/>
  <text x="830" y="318" font-family="Arial" font-size="14" fill="#333333">1. CREDIT</text>
  <text x="1020" y="318" font-family="Arial" font-size="14" fill="#0a8f29">$26.40M</text>
  <text x="1100" y="318" font-family="Arial" font-size="14" fill="#0066cc">3.40</text>
  
  <rect x="820" y="330" width="350" height="35" rx="0" fill="#ffffff"/>
  <text x="830" y="353" font-family="Arial" font-size="14" fill="#333333">2. EQUITY-ARBITRAGE</text>
  <text x="1020" y="353" font-family="Arial" font-size="14" fill="#0a8f29">$34.84M</text>
  <text x="1100" y="353" font-family="Arial" font-size="14" fill="#0066cc">1.26</text>
  
  <rect x="820" y="365" width="350" height="35" rx="0" fill="#f9f9f9"/>
  <text x="830" y="388" font-family="Arial" font-size="14" fill="#333333">3. FUNDAMENTAL-EQUITIES</text>
  <text x="1020" y="388" font-family="Arial" font-size="14" fill="#0a8f29">$41.96M</text>
  <text x="1100" y="388" font-family="Arial" font-size="14" fill="#0066cc">1.70</text>
  
  <!-- Bottom Performers -->
  <text x="820" y="420" font-family="Arial" font-size="16" font-weight="bold" fill="#333333">Bottom Performers (YTD)</text>
  
  <rect x="820" y="435" width="350" height="35" rx="0" fill="#f9f9f9"/>
  <text x="830" y="458" font-family="Arial" font-size="14" fill="#333333">1. COMMODITIES</text>
  <text x="1020" y="458" font-family="Arial" font-size="14" fill="#c62828">-$20.15M</text>
  <text x="1100" y="458" font-family="Arial" font-size="14" fill="#c62828">-4.89</text>
  
  <rect x="820" y="470" width="350" height="35" rx="0" fill="#ffffff"/>
  <text x="830" y="493" font-family="Arial" font-size="14" fill="#333333">2. SYSTEMATIC-TRADING</text>
  <text x="1020" y="493" font-family="Arial" font-size="14" fill="#0a8f29">$7.52M</text>
  <text x="1100" y="493" font-family="Arial" font-size="14" fill="#0066cc">0.83</text>
</svg>
